<svg width="187.9" height="84.751" viewBox="0 0 187.9 84.751" xmlns="http://www.w3.org/2000/svg"><g id="svgGroup" stroke-linecap="round" fill-rule="evenodd" font-size="9pt" stroke="#ffffff" stroke-width="0.25mm" fill="#ededed" style="stroke:#ffffff;stroke-width:0.25mm;fill:#ededed"><path d="M 132.6 66.9 L 150 40.1 L 133.3 15.05 L 148.2 15.05 A 10.2 10.2 0 0 1 149.048 15.083 Q 149.872 15.152 150.396 15.366 A 2.252 2.252 0 0 1 150.625 15.475 Q 151.4 15.9 152 16.9 L 161.25 32.25 Q 161.55 31.35 162 30.5 A 50.596 50.596 0 0 1 162.602 29.399 A 61.61 61.61 0 0 1 163 28.7 L 169.6 17.15 A 6.167 6.167 0 0 1 170.065 16.439 Q 170.335 16.086 170.627 15.833 A 2.934 2.934 0 0 1 171.05 15.525 Q 171.85 15.05 173 15.05 L 187.2 15.05 L 170.5 39.4 L 187.9 66.9 L 173 66.9 A 5.541 5.541 0 0 1 171.898 66.797 Q 170.991 66.613 170.35 66.1 Q 169.35 65.3 168.7 64.2 L 159.45 48.3 A 11.5 11.5 0 0 1 158.938 49.708 A 10.426 10.426 0 0 1 158.85 49.9 A 14.248 14.248 0 0 1 158.297 50.969 A 12.627 12.627 0 0 1 158.1 51.3 L 150.5 64.2 A 6.724 6.724 0 0 1 149.088 65.915 A 7.712 7.712 0 0 1 148.9 66.075 A 3.57 3.57 0 0 1 147.13 66.847 A 4.834 4.834 0 0 1 146.4 66.9 L 132.6 66.9 Z M 35.25 16.65 L 50.9 16.65 L 50.9 22.3 A 3.759 3.759 0 0 1 50.809 23.155 Q 50.652 23.828 50.226 24.297 A 2.396 2.396 0 0 1 50.175 24.35 A 2.867 2.867 0 0 1 49.556 24.825 Q 48.919 25.197 47.925 25.446 A 10.755 10.755 0 0 1 47.7 25.5 L 43.9 26.35 Q 44.6 28.6 44.6 31 A 16.088 16.088 0 0 1 44.086 35.135 A 13.718 13.718 0 0 1 42.975 38 Q 41.35 41.1 38.525 43.275 Q 35.7 45.45 31.85 46.625 A 27.373 27.373 0 0 1 25.298 47.755 A 31.799 31.799 0 0 1 23.6 47.8 A 35.683 35.683 0 0 1 20.655 47.683 A 29.76 29.76 0 0 1 19 47.5 A 5.398 5.398 0 0 0 18.257 48.019 Q 17.3 48.825 17.3 49.8 A 1.88 1.88 0 0 0 17.554 50.784 Q 17.891 51.347 18.675 51.675 Q 19.672 52.092 21.129 52.325 A 20.1 20.1 0 0 0 22.3 52.475 A 57.102 57.102 0 0 0 24.394 52.643 Q 25.819 52.733 27.45 52.775 Q 30.35 52.85 33.35 53.125 Q 36.35 53.4 39.25 54.05 A 16.752 16.752 0 0 1 42.699 55.211 A 14.423 14.423 0 0 1 44.4 56.15 Q 46.65 57.6 48.025 60.025 A 9.808 9.808 0 0 1 49.012 62.59 Q 49.4 64.208 49.4 66.2 A 14.799 14.799 0 0 1 48.004 72.421 A 17.412 17.412 0 0 1 47.7 73.05 Q 46 76.4 42.7 79 A 23.151 23.151 0 0 1 38.513 81.601 A 30.778 30.778 0 0 1 34.6 83.175 A 30.531 30.531 0 0 1 29.105 84.404 A 41.729 41.729 0 0 1 23.6 84.75 A 54.592 54.592 0 0 1 18.921 84.56 Q 16.608 84.361 14.6 83.952 A 29.318 29.318 0 0 1 13.075 83.6 A 32.676 32.676 0 0 1 9.728 82.546 Q 8.029 81.903 6.627 81.116 A 17.997 17.997 0 0 1 5.725 80.575 A 15.475 15.475 0 0 1 3.458 78.825 A 11.126 11.126 0 0 1 1.4 76.25 A 10.445 10.445 0 0 1 0.124 72.706 A 9.806 9.806 0 0 1 0 71.15 A 9.384 9.384 0 0 1 0.477 68.106 A 8.112 8.112 0 0 1 2.1 65.325 A 12.207 12.207 0 0 1 4.953 62.978 A 16.917 16.917 0 0 1 7.85 61.6 Q 6.1 60.45 5.05 58.65 A 7.249 7.249 0 0 1 4.265 56.622 Q 4.058 55.73 4.013 54.693 A 13.61 13.61 0 0 1 4 54.1 A 7.446 7.446 0 0 1 4.157 52.614 A 9.404 9.404 0 0 1 4.4 51.675 A 8.593 8.593 0 0 1 5.3 49.729 A 10.09 10.09 0 0 1 5.65 49.2 Q 6.5 48 7.8 46.9 A 12.795 12.795 0 0 1 9.52 45.682 A 16.246 16.246 0 0 1 10.9 44.95 A 17.719 17.719 0 0 1 6.373 41.573 A 16.08 16.08 0 0 1 4.525 39.25 A 14.237 14.237 0 0 1 2.282 32.722 A 17.793 17.793 0 0 1 2.2 31 A 15.844 15.844 0 0 1 2.782 26.642 A 13.778 13.778 0 0 1 3.85 23.975 Q 5.5 20.85 8.375 18.675 A 20.148 20.148 0 0 1 12.925 16.111 A 24.614 24.614 0 0 1 15.15 15.325 A 27.82 27.82 0 0 1 21.092 14.243 A 33.234 33.234 0 0 1 23.6 14.15 A 29.985 29.985 0 0 1 27.961 14.458 A 26.037 26.037 0 0 1 29.825 14.8 A 25.641 25.641 0 0 1 34.217 16.185 A 23.013 23.013 0 0 1 35.25 16.65 Z M 60.6 52.55 L 60.6 25.75 L 56.2 25.75 Q 55 25.75 54.15 24.975 Q 53.3 24.2 53.3 22.7 L 53.3 16.65 L 61.55 15.05 L 64.6 2.4 A 3.352 3.352 0 0 1 65.188 1.138 Q 65.767 0.394 66.792 0.136 A 4.968 4.968 0 0 1 68 0 L 76.1 0 L 76.1 15.15 L 88.7 15.15 L 88.7 25.75 L 76.1 25.75 L 76.1 51.5 Q 76.1 53.3 76.975 54.475 Q 77.85 55.65 79.5 55.65 Q 80.151 55.65 80.641 55.548 A 3.308 3.308 0 0 0 80.925 55.475 A 6.776 6.776 0 0 0 81.432 55.3 Q 81.666 55.208 81.868 55.105 A 4.136 4.136 0 0 0 81.925 55.075 Q 82.35 54.85 82.725 54.675 A 1.823 1.823 0 0 1 83.208 54.53 A 2.46 2.46 0 0 1 83.6 54.5 A 2.453 2.453 0 0 1 84.068 54.542 Q 84.345 54.596 84.563 54.719 A 1.373 1.373 0 0 1 84.725 54.825 Q 85.023 55.053 85.332 55.464 A 6.35 6.35 0 0 1 85.6 55.85 L 90.3 63.2 A 20.828 20.828 0 0 1 90.254 63.235 A 21.399 21.399 0 0 1 83.55 66.575 Q 79.8 67.7 75.8 67.7 A 21.649 21.649 0 0 1 72.524 67.464 A 15.867 15.867 0 0 1 69.275 66.625 A 13.666 13.666 0 0 1 66.025 64.879 A 12.059 12.059 0 0 1 64.525 63.575 A 12.794 12.794 0 0 1 61.865 59.487 A 14.96 14.96 0 0 1 61.6 58.8 Q 60.6 56 60.6 52.55 Z M 100.6 52.55 L 100.6 25.75 L 96.2 25.75 Q 95 25.75 94.15 24.975 Q 93.3 24.2 93.3 22.7 L 93.3 16.65 L 101.55 15.05 L 104.6 2.4 A 3.352 3.352 0 0 1 105.188 1.138 Q 105.767 0.394 106.792 0.136 A 4.968 4.968 0 0 1 108 0 L 116.1 0 L 116.1 15.15 L 128.7 15.15 L 128.7 25.75 L 116.1 25.75 L 116.1 51.5 Q 116.1 53.3 116.975 54.475 Q 117.85 55.65 119.5 55.65 Q 120.151 55.65 120.641 55.548 A 3.308 3.308 0 0 0 120.925 55.475 A 6.776 6.776 0 0 0 121.432 55.3 Q 121.666 55.208 121.868 55.105 A 4.136 4.136 0 0 0 121.925 55.075 Q 122.35 54.85 122.725 54.675 A 1.823 1.823 0 0 1 123.208 54.53 A 2.46 2.46 0 0 1 123.6 54.5 A 2.453 2.453 0 0 1 124.068 54.542 Q 124.345 54.596 124.563 54.719 A 1.373 1.373 0 0 1 124.725 54.825 Q 125.023 55.053 125.332 55.464 A 6.35 6.35 0 0 1 125.6 55.85 L 130.3 63.2 A 20.828 20.828 0 0 1 130.254 63.235 A 21.399 21.399 0 0 1 123.55 66.575 Q 119.8 67.7 115.8 67.7 A 21.649 21.649 0 0 1 112.524 67.464 A 15.867 15.867 0 0 1 109.275 66.625 A 13.666 13.666 0 0 1 106.025 64.879 A 12.059 12.059 0 0 1 104.525 63.575 A 12.794 12.794 0 0 1 101.865 59.487 A 14.96 14.96 0 0 1 101.6 58.8 Q 100.6 56 100.6 52.55 Z M 35.1 68.8 A 3.266 3.266 0 0 0 34.987 67.917 A 2.441 2.441 0 0 0 34.325 66.8 A 4.542 4.542 0 0 0 33.421 66.13 Q 32.992 65.884 32.471 65.688 A 8.14 8.14 0 0 0 32.225 65.6 Q 30.999 65.184 29.388 64.982 A 20.801 20.801 0 0 0 29.125 64.95 Q 27.35 64.75 25.3 64.65 A 282.819 282.819 0 0 0 22.141 64.514 A 313.915 313.915 0 0 0 21.05 64.475 Q 18.85 64.4 16.7 64.15 A 11.18 11.18 0 0 0 15.235 65.346 A 9.097 9.097 0 0 0 14.325 66.375 Q 13.4 67.6 13.4 69.15 Q 13.4 70.25 13.875 71.15 Q 14.35 72.05 15.55 72.7 A 7.497 7.497 0 0 0 16.566 73.149 Q 17.51 73.491 18.775 73.725 A 19.399 19.399 0 0 0 20.407 73.95 Q 21.269 74.035 22.266 74.072 A 44.217 44.217 0 0 0 23.9 74.1 Q 26.151 74.1 27.86 73.92 A 19.86 19.86 0 0 0 29.4 73.7 A 17.304 17.304 0 0 0 30.775 73.39 Q 31.439 73.209 31.99 72.99 A 7.491 7.491 0 0 0 32.825 72.6 A 5.646 5.646 0 0 0 33.642 72.062 Q 34.28 71.55 34.6 70.925 Q 35.1 69.95 35.1 68.8 Z M 23.6 38.25 A 12.193 12.193 0 0 0 25.598 38.098 Q 26.657 37.922 27.491 37.541 A 5.032 5.032 0 0 0 29.175 36.325 A 6.644 6.644 0 0 0 30.764 32.977 A 9.303 9.303 0 0 0 30.9 31.35 A 9.303 9.303 0 0 0 30.697 29.344 Q 30.307 27.582 29.175 26.4 A 5.145 5.145 0 0 0 27.259 25.17 Q 26.431 24.854 25.396 24.713 A 13.362 13.362 0 0 0 23.6 24.6 A 13.022 13.022 0 0 0 21.603 24.743 Q 19.265 25.107 18.025 26.4 Q 16.347 28.152 16.302 31.182 A 11.305 11.305 0 0 0 16.3 31.35 A 9.216 9.216 0 0 0 16.45 33.043 A 7.628 7.628 0 0 0 16.725 34.1 Q 17.15 35.35 18.05 36.275 A 5.846 5.846 0 0 0 19.551 37.378 A 7.312 7.312 0 0 0 20.325 37.725 A 7.536 7.536 0 0 0 21.781 38.111 Q 22.621 38.25 23.6 38.25 Z" vector-effect="non-scaling-stroke"/></g></svg>